<svg viewBox="0 0 369.7027027027027 47.2972972972973"
    class="css-1j8o68f">
    <defs id="SvgjsDefs26795"></defs>
    <g id="SvgjsG26796" featurekey="symbolFeature-0"
        transform="matrix(0.4984118976736403,0,0,0.4984118976736403,-1.437918320035226,-1.2724455614517702)"
        fill="#d0fbf4">
        <g xmlns="http://www.w3.org/2000/svg">
            <path
                d="M50.333,2.553c-15.686,0-29.611,7.656-38.255,19.422c-1.293,1.632-2.424,3.398-3.371,5.277   C4.998,34.01,2.885,41.763,2.885,50.001c0,26.163,21.285,47.448,47.448,47.448s47.448-21.285,47.448-47.448   S76.496,2.553,50.333,2.553z M44.928,61.67c-7.897,0-14.322-6.506-14.322-14.503s6.425-14.503,14.322-14.503   S59.25,39.17,59.25,47.167S52.825,61.67,44.928,61.67z M44.928,28.412c-10.242,0-18.574,8.413-18.574,18.755   s8.332,18.755,18.574,18.755c0.116,0,0.228-0.016,0.343-0.018c-2.924,1.144-6.097,1.777-9.415,1.777   c-14.448,0-26.203-11.895-26.203-26.515c0-4.277,1.013-8.317,2.798-11.899c0.911-1.658,1.931-3.248,3.045-4.766   c4.808-6.003,12.147-9.85,20.36-9.85c14.011,0,25.488,11.185,26.171,25.192C59.196,33.132,52.599,28.412,44.928,28.412z    M50.333,93.197c-23.313,0-42.36-18.568-43.158-41.69c4.214,11.893,15.478,20.427,28.681,20.427   c16.794,0,30.456-13.802,30.456-30.767S52.649,10.4,35.855,10.4c-1.047,0-2.082,0.054-3.103,0.158   c5.374-2.405,11.321-3.754,17.58-3.754c23.818,0,43.196,19.378,43.196,43.196S74.151,93.197,50.333,93.197z">
            </path>
        </g>
    </g>
    <g id="SvgjsG26797" featurekey="nameFeature-0"
        transform="matrix(1.4665829053004573,0,0,1.4665829053004573,67,-13.780435193992007)" fill="#fce38a">
        <path
            d="M3.8 34 l0 5.96 l-3.8 0 l0 -28.52 l5.92 0 c2.64 0 4.76 2.16 4.76 4.8 l0 13 c0 2.64 -2.12 4.76 -4.76 4.76 l-2.12 0 z M3.8 15.239999999999998 l0 14.96 l2.12 0 c0.56 0 0.96 -0.4 0.96 -0.96 l0 -13 c0 -0.56 -0.4 -1 -0.96 -1 l-2.12 0 z M22 24.92 l-5.52 0 l0 11.28 l5.56 0 l0 3.8 l-9.36 0 l0 -28.56 l9.36 0 l0 3.8 l-5.56 0 l0 5.88 l5.52 0 l0 3.8 z M35 40.08 l-4.08 0 l-2.2 -6.04 l-0.88 0 l0 6.04 l-3.8 0 l0 -28.64 l5.96 0 c2.64 0 4.76 2.12 4.76 4.76 l0 13.08 c0 1.72 -0.88 3.2 -2.24 4.04 z M27.84 15.239999999999998 l0 15 l2.16 0 c0.52 0 0.96 -0.44 0.96 -0.96 l0 -13.08 c0 -0.52 -0.44 -0.96 -0.96 -0.96 l-2.16 0 z M42.480000000000004 40.24 c-3.04 0 -5.48 -2.48 -5.48 -5.48 l0 -4.36 l3.88 0 l0 4.36 c0 0.88 0.72 1.6 1.6 1.6 s1.56 -0.72 1.56 -1.6 l0 -3.8 l-7.04 -9.72 l0 -4.96 c0 -3.04 2.44 -5.52 5.48 -5.52 c3 0 5.44 2.48 5.44 5.52 l0 4.32 l-3.88 0 l0 -4.32 c0 -0.92 -0.68 -1.6 -1.56 -1.6 s-1.6 0.68 -1.6 1.6 l0 3.64 l7.04 9.72 l0 5.12 c0 3 -2.44 5.48 -5.44 5.48 z M55.32 40.04 c-3 0 -5.4 -2.44 -5.4 -5.4 l0 -17.96 c0 -2.96 2.4 -5.36 5.4 -5.36 c2.96 0 5.36 2.4 5.36 5.36 l0 17.96 c0 2.96 -2.4 5.4 -5.36 5.4 z M55.32 15.120000000000001 c-0.88 0 -1.56 0.72 -1.56 1.56 l0 17.96 c0 0.88 0.68 1.56 1.56 1.56 c0.84 0 1.56 -0.68 1.56 -1.56 l0 -17.96 c0 -0.84 -0.72 -1.56 -1.56 -1.56 z M71.96 33.44 l0.16 -22.16 l3.84 0 l-0.24 28.88 l-5.96 0 l-3.24 -22.36 l0 22.36 l-3.84 0 l0 -28.88 l6.2 0 z M88.60000000000001 40 l-1.44 -9.88 l-4.04 0 l-1.32 9.88 l-3.84 0 l4.32 -28.6 l5.16 0 l5 28.6 l-3.84 0 z M83.64000000000001 26.32 l2.96 0 l-1.52 -10.4 z M98.20000000000002 36.24 l5.52 0 l0 3.76 l-9.28 0 l0 -28.72 l3.76 0 l0 24.96 z M117.52000000000001 34 l0 5.96 l-3.8 0 l0 -28.52 l5.92 0 c2.64 0 4.76 2.16 4.76 4.8 l0 13 c0 2.64 -2.12 4.76 -4.76 4.76 l-2.12 0 z M117.52000000000001 15.239999999999998 l0 14.96 l2.12 0 c0.56 0 0.96 -0.4 0.96 -0.96 l0 -13 c0 -0.56 -0.4 -1 -0.96 -1 l-2.12 0 z M130.16 36.24 l5.52 0 l0 3.76 l-9.28 0 l0 -28.72 l3.76 0 l0 24.96 z M147.68 40 l-1.44 -9.88 l-4.04 0 l-1.32 9.88 l-3.84 0 l4.32 -28.6 l5.16 0 l5 28.6 l-3.84 0 z M142.72000000000003 26.32 l2.96 0 l-1.52 -10.4 z M162.8 33.44 l0.16 -22.16 l3.84 0 l-0.24 28.88 l-5.96 0 l-3.24 -22.36 l0 22.36 l-3.84 0 l0 -28.88 l6.2 0 z M178.08 33.44 l0.16 -22.16 l3.84 0 l-0.24 28.88 l-5.96 0 l-3.24 -22.36 l0 22.36 l-3.84 0 l0 -28.88 l6.2 0 z M193.4 24.92 l-5.52 0 l0 11.28 l5.56 0 l0 3.8 l-9.36 0 l0 -28.56 l9.36 0 l0 3.8 l-5.56 0 l0 5.88 l5.52 0 l0 3.8 z M206.4 40.08 l-4.08 0 l-2.2 -6.04 l-0.88 0 l0 6.04 l-3.8 0 l0 -28.64 l5.96 0 c2.64 0 4.76 2.12 4.76 4.76 l0 13.08 c0 1.72 -0.88 3.2 -2.24 4.04 z M199.24 15.239999999999998 l0 15 l2.16 0 c0.52 0 0.96 -0.44 0.96 -0.96 l0 -13.08 c0 -0.52 -0.44 -0.96 -0.96 -0.96 l-2.16 0 z">
        </path>
    </g>
</svg>