<svg viewBox="0 0 406 69.4668687610103" class="css-1j8o68f">
    <defs id="SvgjsDefs26543"></defs>
    <g id="SvgjsG26544" featurekey="symbolFeature-0"
        transform="matrix(0.7003002612882794,0,0,0.7003002612882794,-2.020366247138102,0.21213345163105712)"
        fill="#d0fbf4">
        <g xmlns="http://www.w3.org/2000/svg">
            <path
                d="M50.333,2.553c-15.686,0-29.611,7.656-38.255,19.422c-1.293,1.632-2.424,3.398-3.371,5.277   C4.998,34.01,2.885,41.763,2.885,50.001c0,26.163,21.285,47.448,47.448,47.448s47.448-21.285,47.448-47.448   S76.496,2.553,50.333,2.553z M44.928,61.67c-7.897,0-14.322-6.506-14.322-14.503s6.425-14.503,14.322-14.503   S59.25,39.17,59.25,47.167S52.825,61.67,44.928,61.67z M44.928,28.412c-10.242,0-18.574,8.413-18.574,18.755   s8.332,18.755,18.574,18.755c0.116,0,0.228-0.016,0.343-0.018c-2.924,1.144-6.097,1.777-9.415,1.777   c-14.448,0-26.203-11.895-26.203-26.515c0-4.277,1.013-8.317,2.798-11.899c0.911-1.658,1.931-3.248,3.045-4.766   c4.808-6.003,12.147-9.85,20.36-9.85c14.011,0,25.488,11.185,26.171,25.192C59.196,33.132,52.599,28.412,44.928,28.412z    M50.333,93.197c-23.313,0-42.36-18.568-43.158-41.69c4.214,11.893,15.478,20.427,28.681,20.427   c16.794,0,30.456-13.802,30.456-30.767S52.649,10.4,35.855,10.4c-1.047,0-2.082,0.054-3.103,0.158   c5.374-2.405,11.321-3.754,17.58-3.754c23.818,0,43.196,19.378,43.196,43.196S74.151,93.197,50.333,93.197z">
            </path>
        </g>
    </g>
    <g id="SvgjsG26545" featurekey="textGroupContainer" transform="matrix(1,0,0,1,405,0)" fill="#fbf6d1">
        <rect xmlns="http://www.w3.org/2000/svg" y="0" height="1" width="1" opacity="0"></rect>
        <rect xmlns="http://www.w3.org/2000/svg" y="0" x="-319" width="3" height="69"></rect>
    </g>
    <g id="SvgjsG26546" featurekey="nameFeature-0"
        transform="matrix(1.3737612024333397,0,0,1.3737612024333397,104,-14.781673472853273)" fill="#fce38a">
        <path
            d="M3.8 34 l0 5.96 l-3.8 0 l0 -28.52 l5.92 0 c2.64 0 4.76 2.16 4.76 4.8 l0 13 c0 2.64 -2.12 4.76 -4.76 4.76 l-2.12 0 z M3.8 15.239999999999998 l0 14.96 l2.12 0 c0.56 0 0.96 -0.4 0.96 -0.96 l0 -13 c0 -0.56 -0.4 -1 -0.96 -1 l-2.12 0 z M22 24.92 l-5.52 0 l0 11.28 l5.56 0 l0 3.8 l-9.36 0 l0 -28.56 l9.36 0 l0 3.8 l-5.56 0 l0 5.88 l5.52 0 l0 3.8 z M35 40.08 l-4.08 0 l-2.2 -6.04 l-0.88 0 l0 6.04 l-3.8 0 l0 -28.64 l5.96 0 c2.64 0 4.76 2.12 4.76 4.76 l0 13.08 c0 1.72 -0.88 3.2 -2.24 4.04 z M27.84 15.239999999999998 l0 15 l2.16 0 c0.52 0 0.96 -0.44 0.96 -0.96 l0 -13.08 c0 -0.52 -0.44 -0.96 -0.96 -0.96 l-2.16 0 z M42.480000000000004 40.24 c-3.04 0 -5.48 -2.48 -5.48 -5.48 l0 -4.36 l3.88 0 l0 4.36 c0 0.88 0.72 1.6 1.6 1.6 s1.56 -0.72 1.56 -1.6 l0 -3.8 l-7.04 -9.72 l0 -4.96 c0 -3.04 2.44 -5.52 5.48 -5.52 c3 0 5.44 2.48 5.44 5.52 l0 4.32 l-3.88 0 l0 -4.32 c0 -0.92 -0.68 -1.6 -1.56 -1.6 s-1.6 0.68 -1.6 1.6 l0 3.64 l7.04 9.72 l0 5.12 c0 3 -2.44 5.48 -5.44 5.48 z M55.32 40.04 c-3 0 -5.4 -2.44 -5.4 -5.4 l0 -17.96 c0 -2.96 2.4 -5.36 5.4 -5.36 c2.96 0 5.36 2.4 5.36 5.36 l0 17.96 c0 2.96 -2.4 5.4 -5.36 5.4 z M55.32 15.120000000000001 c-0.88 0 -1.56 0.72 -1.56 1.56 l0 17.96 c0 0.88 0.68 1.56 1.56 1.56 c0.84 0 1.56 -0.68 1.56 -1.56 l0 -17.96 c0 -0.84 -0.72 -1.56 -1.56 -1.56 z M71.96 33.44 l0.16 -22.16 l3.84 0 l-0.24 28.88 l-5.96 0 l-3.24 -22.36 l0 22.36 l-3.84 0 l0 -28.88 l6.2 0 z M88.60000000000001 40 l-1.44 -9.88 l-4.04 0 l-1.32 9.88 l-3.84 0 l4.32 -28.6 l5.16 0 l5 28.6 l-3.84 0 z M83.64000000000001 26.32 l2.96 0 l-1.52 -10.4 z M98.20000000000002 36.24 l5.52 0 l0 3.76 l-9.28 0 l0 -28.72 l3.76 0 l0 24.96 z M117.52000000000001 34 l0 5.96 l-3.8 0 l0 -28.52 l5.92 0 c2.64 0 4.76 2.16 4.76 4.8 l0 13 c0 2.64 -2.12 4.76 -4.76 4.76 l-2.12 0 z M117.52000000000001 15.239999999999998 l0 14.96 l2.12 0 c0.56 0 0.96 -0.4 0.96 -0.96 l0 -13 c0 -0.56 -0.4 -1 -0.96 -1 l-2.12 0 z M130.16 36.24 l5.52 0 l0 3.76 l-9.28 0 l0 -28.72 l3.76 0 l0 24.96 z M147.68 40 l-1.44 -9.88 l-4.04 0 l-1.32 9.88 l-3.84 0 l4.32 -28.6 l5.16 0 l5 28.6 l-3.84 0 z M142.72000000000003 26.32 l2.96 0 l-1.52 -10.4 z M162.8 33.44 l0.16 -22.16 l3.84 0 l-0.24 28.88 l-5.96 0 l-3.24 -22.36 l0 22.36 l-3.84 0 l0 -28.88 l6.2 0 z M178.08 33.44 l0.16 -22.16 l3.84 0 l-0.24 28.88 l-5.96 0 l-3.24 -22.36 l0 22.36 l-3.84 0 l0 -28.88 l6.2 0 z M193.4 24.92 l-5.52 0 l0 11.28 l5.56 0 l0 3.8 l-9.36 0 l0 -28.56 l9.36 0 l0 3.8 l-5.56 0 l0 5.88 l5.52 0 l0 3.8 z M206.4 40.08 l-4.08 0 l-2.2 -6.04 l-0.88 0 l0 6.04 l-3.8 0 l0 -28.64 l5.96 0 c2.64 0 4.76 2.12 4.76 4.76 l0 13.08 c0 1.72 -0.88 3.2 -2.24 4.04 z M199.24 15.239999999999998 l0 15 l2.16 0 c0.52 0 0.96 -0.44 0.96 -0.96 l0 -13.08 c0 -0.52 -0.44 -0.96 -0.96 -0.96 l-2.16 0 z">
        </path>
    </g>
    <g id="SvgjsG26547" featurekey="sloganFeature-0"
        transform="matrix(0.6150988756494524,0,0,0.6150988756494524,103.69377269426522,56.98455187367789)"
        fill="#f8f6de">
        <path
            d="M0.49805 5.195 l4.8047 0 l0 1.6895 l-1.4063 0 l2.7832 4.7559 l2.9785 -4.7559 l-1.543 0 l0 -1.6895 l4.8047 0 l0 1.6895 l-1.2598 0 l-4.1602 6.3086 l0 5.127 l1.5234 0 l0 1.6797 l-4.8047 0 l0 -1.6797 l1.3574 0 l0 -5.1758 l-3.9258 -6.2598 l-1.1523 0 l0 -1.6895 z M24.23189921875 20.29297 q-1.533203125 0 -2.802734375 -0.5712890625 t-2.2656 -1.626 t-1.5137 -2.5 t-0.51758 -2.998 q0 -1.6015625 0.5224609375 -3.0078125 t1.4648 -2.4463 t2.2461 -1.6406 t2.8662 -0.60059 q1.572265625 0 2.880859375 0.6005859375 t2.2461 1.6406 t1.4551 2.4463 t0.51758 3.0078 t-0.52246 3.0029 t-1.4648 2.4463 t-2.2461 1.6455 t-2.8662 0.60059 z M24.23189921875 18.4766 q1.162109375 0 2.104492188 -0.478515625 t1.6064 -1.2842 t1.0254 -1.8701 t0.36133 -2.2461 q0 -1.2109375 -0.3955078125 -2.338867188 t-1.1035 -1.9092 t-1.6455 -1.2061 t-1.9531 -0.4248 q-1.162109375 0 -2.109375 0.478515625 t-1.6113 1.2842 t-1.0254 1.875 t-0.36133 2.2412 q0 1.3671875 0.400390625 2.436523438 t1.0596 1.7773 t1.5723 1.1865 t2.0752 0.47852 z M36.3349453125 5.195 l4.7949 0 l0 1.6895 l-1.5137 0 l0 6.8945 q0 1.240234375 0.2783203125 2.114257813 t0.77148 1.4258 t1.1719 0.80566 t1.4893 0.25391 q0.83984375 0 1.54296875 -0.224609375 t1.2061 -0.75684 t0.78125 -1.416 t0.27832 -2.2021 l0 -6.8945 l-1.6016 0 l0 -1.6895 l4.7949 0 l0 1.6895 l-1.3184 0 l0 6.6797 q0 1.6015625 -0.4443359375 2.841796875 t-1.2158 2.0801 t-1.8164 1.2744 t-2.2461 0.43457 q-1.171875 0 -2.192382813 -0.4296875 t-1.7773 -1.2598 t-1.1914 -2.0264 t-0.43457 -2.7393 l0 -6.8555 l-1.3574 0 l0 -1.6895 z M54.97120703125 5.195 l6.1621 0 q0.986328125 0 1.821289063 0.2587890625 t1.4453 0.76172 t0.95215 1.2549 t0.3418 1.7285 q0 0.556640625 -0.2001953125 1.098632813 t-0.55664 1.0059 t-0.84473 0.8252 t-1.0645 0.55664 q0.244140625 0.107421875 0.4931640625 0.3076171875 t0.46875 0.48828 t0.40039 0.6543 t0.28809 0.78613 l0.82031 3.2227 l1.2793 0 l0.019531 1.8555 l-2.8809 0 l-1.1035 -4.502 q-0.302734375 -1.2109375 -0.9228515625 -1.782226563 t-1.6943 -0.57129 l-1.9043 0 l0 5.1758 l1.4844 0 l0 1.6797 l-4.8047 0 l0 -1.6797 l1.4063 0 l0 -11.436 l-1.4063 0 l0 -1.6895 z M58.29150703125 6.885 l0 4.6582 l2.8418 0 q0.556640625 0 1.020507813 -0.146484375 t0.80078 -0.43945 t0.52734 -0.72754 t0.19043 -1.0107 q0 -1.103515625 -0.6640625 -1.71875 t-2.1094 -0.61523 l-2.6074 0 z M71.01953125 20 z M79.99757421875 5.195 l4.8047 0 l0 1.6895 l-1.4844 0 l0 11.436 l5.1074 0 q0.15625 0 0.3125 -0.0732421875 t0.2832 -0.19043 t0.20508 -0.26855 t0.078125 -0.30762 l0 -1.8652 l1.8555 0 l0 4.3848 l-11.162 0 l0 -1.6797 l1.4063 0 l0 -11.436 l-1.4063 0 l0 -1.6895 z M95.8603671875 5.195 l4.7266 0 l0 1.6895 l-1.4063 0 l0 11.436 l1.4063 0 l0 1.6797 l-4.7266 0 l0 -1.6797 l1.4063 0 l0 -11.436 l-1.4063 0 l0 -1.6895 z M106.58644140625 5.195 l10.605 0 l0 4.1895 l-2.002 0 l0 -2.5 l-5.2832 0 l0 4.7559 l5.0879 0 l0 1.6406 l-5.0879 0 l0 5.0391 l1.4844 0 l0 1.6797 l-4.8047 0 l0 -1.6797 l1.4063 0 l0 -11.436 l-1.4063 0 l0 -1.6895 z M121.93165625 5.195 l10.605 0 l0 4.1895 l-2.002 0 l0 -2.5 l-5.2832 0 l0 4.7363 l4.4434 0 l0 1.6797 l-4.4434 0 l0 5.0195 l5.2832 0 l0 -2.5 l2.002 0 l0 4.1797 l-10.605 0 l0 -1.6797 l1.4063 0 l0 -11.436 l-1.4063 0 l0 -1.6895 z M136.30029296875 20 z M145.2783359375 5.195 l4.7266 0 l0 1.6895 l-1.4063 0 l0 11.436 l1.4063 0 l0 1.6797 l-4.7266 0 l0 -1.6797 l1.4063 0 l0 -11.436 l-1.4063 0 l0 -1.6895 z M165.16491015625 5.195 l4.8047 0 l0 1.6895 l-1.2598 0 l0 13.115 l-2.5 0 l-6.8848 -12.275 l0 10.596 l1.5234 0 l0 1.6797 l-4.8047 0 l0 -1.6797 l1.3672 0 l0 -11.436 l-1.4063 0 l0 -1.709 l3.9844 0 l6.7578 12.158 l0.078125 -0.46875 l0 -9.9805 l-1.6602 0 l0 -1.6895 z M173.673828125 20 z M189.05807109375 20.29297 q-1.533203125 0 -2.802734375 -0.5712890625 t-2.2656 -1.626 t-1.5137 -2.5 t-0.51758 -2.998 q0 -1.6015625 0.5224609375 -3.0078125 t1.4648 -2.4463 t2.2461 -1.6406 t2.8662 -0.60059 q1.572265625 0 2.880859375 0.6005859375 t2.2461 1.6406 t1.4551 2.4463 t0.51758 3.0078 t-0.52246 3.0029 t-1.4648 2.4463 t-2.2461 1.6455 t-2.8662 0.60059 z M189.05807109375 18.4766 q1.162109375 0 2.104492188 -0.478515625 t1.6064 -1.2842 t1.0254 -1.8701 t0.36133 -2.2461 q0 -1.2109375 -0.3955078125 -2.338867188 t-1.1035 -1.9092 t-1.6455 -1.2061 t-1.9531 -0.4248 q-1.162109375 0 -2.109375 0.478515625 t-1.6113 1.2842 t-1.0254 1.875 t-0.36133 2.2412 q0 1.3671875 0.400390625 2.436523438 t1.0596 1.7773 t1.5723 1.1865 t2.0752 0.47852 z M210.6146171875 5.195 l4.8047 0 l0 1.6895 l-1.2598 0 l0 13.115 l-2.5 0 l-6.8848 -12.275 l0 10.596 l1.5234 0 l0 1.6797 l-4.8047 0 l0 -1.6797 l1.3672 0 l0 -11.436 l-1.4063 0 l0 -1.709 l3.9844 0 l6.7578 12.158 l0.078125 -0.46875 l0 -9.9805 l-1.6602 0 l0 -1.6895 z M220.52003515625 5.195 l10.605 0 l0 4.1895 l-2.002 0 l0 -2.5 l-5.2832 0 l0 4.7363 l4.4434 0 l0 1.6797 l-4.4434 0 l0 5.0195 l5.2832 0 l0 -2.5 l2.002 0 l0 4.1797 l-10.605 0 l0 -1.6797 l1.4063 0 l0 -11.436 l-1.4063 0 l0 -1.6895 z M234.888671875 20 z M243.86671484375 5.195 l5.9863 0 q0.99609375 0 1.831054688 0.2587890625 t1.4453 0.76172 t0.94727 1.2549 t0.33691 1.7285 q0 0.810546875 -0.33203125 1.528320313 t-0.9375 1.2549 t-1.4502 0.84961 t-1.8799 0.3125 l-2.627 0 l0 5.1758 l1.4844 0 l0 1.6797 l-4.8047 0 l0 -1.6797 l1.4063 0 l0 -11.436 l-1.4063 0 l0 -1.6895 z M247.18701484375 6.885 l0 4.6582 l2.666 0 q0.556640625 0 1.020507813 -0.1513671875 t0.80078 -0.44434 t0.52734 -0.73242 t0.19043 -1.0156 q0 -1.09375 -0.6640625 -1.704101563 t-2.1191 -0.61035 l-2.4219 0 z M259.4951328125 5.195 l4.8047 0 l0 1.6895 l-1.4844 0 l0 11.436 l5.1074 0 q0.15625 0 0.3125 -0.0732421875 t0.2832 -0.19043 t0.20508 -0.26855 t0.078125 -0.30762 l0 -1.8652 l1.8555 0 l0 4.3848 l-11.162 0 l0 -1.6797 l1.4063 0 l0 -11.436 l-1.4063 0 l0 -1.6895 z M284.11742578125 18.3203 l1.2305 0 l-1.1719 -3.3594 l-5.6934 0 l-1.1426 3.3594 l1.5234 0 l0 1.6797 l-4.8047 0 l0 -1.6797 l1.2891 0 l4.6094 -13.125 l2.8809 0 l4.5996 13.125 l1.4844 0 l0 1.6797 l-4.8047 0 l0 -1.6797 z M279.03952578125 13.3398 l4.5703 0 l-2.3047 -6.6211 z M304.1305625 9.102 q-0.654296875 -1.11328125 -1.733398438 -1.748046875 t-2.4072 -0.63477 q-1.1328125 0 -2.0703125 0.478515625 t-1.6064 1.2842 t-1.04 1.8652 t-0.37109 2.2314 q0 1.38671875 0.41015625 2.456054688 t1.0693 1.7773 t1.5674 1.1816 t2.041 0.47363 q1.54296875 0 2.685546875 -0.7470703125 t1.9531 -2.4561 l1.7188 0.81055 q-0.37109375 1.0546875 -1.259765625 2.036132813 t-2.1924 1.582 t-2.8857 0.60059 q-1.513671875 0 -2.783203125 -0.5712890625 t-2.2607 -1.626 t-1.5137 -2.5 t-0.52246 -3.0176 q0 -1.58203125 0.5224609375 -2.98828125 t1.4648 -2.4463 t2.2461 -1.6406 t2.8271 -0.60059 q1.357421875 0 2.34375 0.3857421875 t1.6748 0.91797 t1.1865 1.1572 l1.0352 0 l0 1.7383 l-2.0996 0 z M311.56593359375 5.195 l10.605 0 l0 4.1895 l-2.002 0 l0 -2.5 l-5.2832 0 l0 4.7363 l4.4434 0 l0 1.6797 l-4.4434 0 l0 5.0195 l5.2832 0 l0 -2.5 l2.002 0 l0 4.1797 l-10.605 0 l0 -1.6797 l1.4063 0 l0 -11.436 l-1.4063 0 l0 -1.6895 z">
        </path>
    </g>
</svg>